<svg width="36" height="36" viewBox="0 0 36 36" fill="none" xmlns="http://www.w3.org/2000/svg">
<path d="M13.0875 4.95003L25.575 17.4C25.7 17.525 25.7935 17.669 25.8555 17.832C25.9185 17.994 25.95 18.1625 25.95 18.3375C25.95 18.5125 25.9185 18.6815 25.8555 18.8445C25.7935 19.0065 25.7 19.15 25.575 19.275L13.0875 31.7625C12.7875 32.0625 12.4375 32.2125 12.0375 32.2125C11.6375 32.2125 11.275 32.05 10.95 31.725C10.65 31.45 10.5 31.1065 10.5 30.6945C10.5 30.2815 10.65 29.925 10.95 29.625L22.275 18.3375L10.95 7.01253C10.675 6.73753 10.5375 6.40002 10.5375 6.00002C10.5375 5.60002 10.6875 5.25002 10.9875 4.95003C11.2875 4.65003 11.6375 4.50002 12.0375 4.50002C12.4375 4.50002 12.7875 4.65003 13.0875 4.95003Z" fill="white"/>
</svg>
